<svg width="28" height="35" viewBox="0 0 28 35" fill="none" xmlns="http://www.w3.org/2000/svg">
<g clip-path="url(#clip0_29_26)">
<path d="M10.3667 29.24C9.02383 29.24 7.78735 29.024 6.65733 28.592C5.52731 28.16 4.54469 27.56 3.70946 26.792C2.87422 26.008 2.22733 25.096 1.76877 24.056C1.31021 23 1.08093 21.848 1.08093 20.6C1.08093 19.352 1.31021 18.208 1.76877 17.168C2.22733 16.112 2.87422 15.2 3.70946 14.432C4.54469 13.648 5.52731 13.04 6.65733 12.608C7.78735 12.176 9.01564 11.96 10.3422 11.96C11.6851 11.96 12.9134 12.176 14.027 12.608C15.157 13.04 16.1397 13.64 16.9749 14.408C17.8101 15.176 18.457 16.088 18.9156 17.144C19.3742 18.2 19.6034 19.352 19.6034 20.6C19.6034 21.848 19.3742 23 18.9156 24.056C18.457 25.112 17.8101 26.024 16.9749 26.792C16.1397 27.56 15.157 28.16 14.027 28.592C12.9134 29.024 11.6933 29.24 10.3667 29.24ZM15.9677 32.672C15.3618 32.672 14.7722 32.6 14.199 32.456C13.6422 32.328 13.0853 32.104 12.5285 31.784C11.9881 31.48 11.4231 31.072 10.8335 30.56C10.2439 30.064 9.59702 29.448 8.89281 28.712L12.2829 27.848C12.7414 28.44 13.1754 28.912 13.5848 29.264C14.0107 29.632 14.4201 29.896 14.8131 30.056C15.2062 30.216 15.6156 30.296 16.0414 30.296C17.1714 30.296 18.1541 29.848 18.9893 28.952L20.4632 30.68C19.3168 32.008 17.8183 32.672 15.9677 32.672ZM10.3422 26.504C11.2102 26.504 12.0126 26.36 12.7496 26.072C13.4866 25.784 14.1253 25.376 14.6657 24.848C15.2062 24.304 15.6238 23.672 15.9186 22.952C16.2297 22.232 16.3853 21.448 16.3853 20.6C16.3853 19.736 16.2297 18.952 15.9186 18.248C15.6238 17.528 15.2062 16.904 14.6657 16.376C14.1253 15.832 13.4866 15.416 12.7496 15.128C12.0126 14.84 11.2102 14.696 10.3422 14.696C9.4742 14.696 8.67172 14.84 7.93475 15.128C7.19778 15.416 6.55907 15.832 6.01863 16.376C5.47818 16.904 5.05238 17.528 4.74121 18.248C4.44643 18.952 4.29903 19.736 4.29903 20.6C4.29903 21.448 4.44643 22.232 4.74121 22.952C5.05238 23.672 5.47818 24.304 6.01863 24.848C6.55907 25.376 7.19778 25.784 7.93475 26.072C8.67172 26.36 9.4742 26.504 10.3422 26.504Z" fill="#E8F8F6"/>
<mask id="mask0_29_26" style="mask-type:alpha" maskUnits="userSpaceOnUse" x="8" y="6" width="20" height="18">
<path d="M8.99097 23.7408L16.7292 6.94078H19.8736L27.6363 23.7408H24.2954L17.6381 8.59678H18.9155L12.2828 23.7408H8.99097ZM12.553 19.8528L13.4128 17.4048H22.6986L23.5584 19.8528H12.553Z" fill="#B1C8E4"/>
</mask>
<g mask="url(#mask0_29_26)">
<line y1="-1.5" x2="8.04483" y2="-1.5" transform="matrix(0.407967 -0.912996 0.922965 0.384884 11.475 25.4543)" stroke="#B1C8E4" stroke-width="3"/>
<line y1="-0.5" x2="6.59319" y2="-0.5" transform="matrix(0.923472 0.383667 -0.406705 0.91356 13.2659 9.74356)" stroke="#B1C8E4"/>
<line y1="-0.5" x2="9.13729" y2="-0.5" transform="matrix(0.405305 0.914182 -0.924031 0.382317 20.0862 15.6775)" stroke="#B1C8E4"/>
<path d="M15.2495 5.77853C15.2575 5.94433 15.3494 6.06415 15.3993 6.21678C15.464 6.41458 15.6095 6.56434 15.76 6.70864C16.1634 7.09535 16.6178 7.43101 17.0433 7.7942C17.0437 7.79457 17.9092 8.41016 17.7661 8.52327C17.699 8.57628 17.4189 8.52863 17.336 8.52863C17.1195 8.52863 16.9949 8.47396 16.7978 8.39461C16.6336 8.32854 16.5079 8.23915 16.3233 8.23915C16.227 8.23915 16.262 8.2917 16.3164 8.35843C16.4645 8.54034 16.6784 8.67772 16.8921 8.77791C17.086 8.86882 17.3022 8.93873 17.5192 8.93873C17.6508 8.93873 17.7613 8.97734 17.8715 9.05131C18.0816 9.19224 18.1039 9.43908 18.4015 9.44533C18.7281 9.45219 19.1436 9.54889 19.2519 9.13038C19.329 8.83247 19.3052 8.31547 19.0258 8.12389C18.8573 8.00837 18.6782 7.90565 18.5042 7.79822C18.3717 7.71644 18.5091 7.87134 18.5375 7.90142C18.6688 8.04046 18.8195 8.16273 18.955 8.29812C19.231 8.57372 19.4424 8.91916 19.6085 9.26574C19.6904 9.43661 19.8165 9.61405 19.8193 9.80719C19.8229 10.0455 19.7153 10.453 19.9817 10.5778C20.178 10.6698 20.3889 10.6905 20.5935 10.7534C20.8106 10.8201 20.8182 11.0029 20.8182 11.193C20.8182 11.4694 20.8644 11.7222 20.9015 11.9957C20.9218 12.1455 20.966 12.3322 20.8557 12.4501C20.7875 12.5229 20.7406 12.5532 20.6434 12.509C20.6242 12.5003 20.4746 12.4463 20.4742 12.4474C20.4523 12.4975 20.5262 12.6033 20.5463 12.6377C20.6437 12.8041 20.7716 12.9525 20.864 13.1215C20.9201 13.2241 21.0398 13.3551 21.0693 13.4646C21.138 13.7189 21.2867 13.9243 21.3926 14.1615C21.4504 14.2911 21.5545 14.4117 21.5923 14.5488C21.6441 14.7363 21.834 14.9472 21.9475 15.1037C22.0761 15.281 22.2437 15.4364 22.3803 15.6103C22.5263 15.796 22.6896 15.9709 22.8631 16.1329C22.9575 16.2211 23.0888 16.2965 23.1628 16.4037C23.1782 16.426 23.2057 16.4992 23.21 16.4224C23.2216 16.2111 23.1167 15.9934 23.0393 15.8019C22.8986 15.4537 22.7457 15.1517 22.705 14.7793C22.6782 14.5343 22.6231 13.8025 22.5968 14.0476C22.5452 14.5273 22.6615 15.0373 22.7286 15.5111C22.8121 16.1013 22.9831 16.641 23.1586 17.2091C23.1962 17.3307 23.2215 17.4526 23.2599 17.575C23.3962 18.009 23.5994 18.4157 23.7704 18.8375C23.8217 18.9639 23.8447 19.0684 23.9397 19.1685C24.0524 19.2873 24.1823 19.3801 24.299 19.4928C24.4061 19.5963 24.5067 19.7199 24.6 19.8346C24.8285 20.1152 25.0898 20.3682 25.2715 20.6816C25.3283 20.7796 25.3048 20.9055 25.3312 21.0113C25.4427 21.4589 25.79 21.8454 25.986 22.263C26.0399 22.378 26.1774 22.5553 26.0762 22.6839C26.0062 22.7726 25.9165 22.7806 25.832 22.834C25.5429 23.0166 25.3228 22.2164 25.2632 22.0566C25.1992 21.8853 25.0924 21.7299 25.0246 21.5608C24.9869 21.4668 25.0066 21.3793 24.9441 21.29C24.8922 21.2159 24.8397 21.1531 24.7859 21.081C24.7742 21.0652 24.6751 20.9542 24.6944 20.9336C24.7219 20.9041 24.8781 21.0299 24.8914 21.0394C25.2633 21.3053 25.5957 21.6157 25.9707 21.8771C26.1268 21.9858 26.2461 22.1033 26.3259 22.2684C26.3951 22.4118 26.3998 22.5593 26.4813 22.6946C26.5132 22.7477 26.4892 22.8486 26.5423 22.8822C26.5922 22.9137 26.6548 22.9063 26.7115 22.9063" stroke="#B1C8E4" stroke-width="3" stroke-linecap="round"/>
</g>
</g>
<defs>
<clipPath id="clip0_29_26">
<rect width="27.6364" height="35" fill="white"/>
</clipPath>
</defs>
</svg>
