<svg width="27" height="35" viewBox="0 0 27 35" fill="none" xmlns="http://www.w3.org/2000/svg">
<path d="M8.78399 23.7408L16.344 6.94078H19.416L27 23.7408H23.736L17.232 8.59678H18.48L12 23.7408H8.78399ZM12.264 19.8528L13.104 17.4048H22.176L23.016 19.8528H12.264Z" fill="#B1C8E4"/>
<path d="M10.128 29.24C8.816 29.24 7.608 29.024 6.504 28.592C5.4 28.16 4.44 27.56 3.624 26.792C2.808 26.008 2.176 25.096 1.728 24.056C1.28 23 1.056 21.848 1.056 20.6C1.056 19.352 1.28 18.208 1.728 17.168C2.176 16.112 2.808 15.2 3.624 14.432C4.44 13.648 5.4 13.04 6.504 12.608C7.608 12.176 8.808 11.96 10.104 11.96C11.416 11.96 12.616 12.176 13.704 12.608C14.808 13.04 15.768 13.64 16.584 14.408C17.4 15.176 18.032 16.088 18.48 17.144C18.928 18.2 19.152 19.352 19.152 20.6C19.152 21.848 18.928 23 18.48 24.056C18.032 25.112 17.4 26.024 16.584 26.792C15.768 27.56 14.808 28.16 13.704 28.592C12.616 29.024 11.424 29.24 10.128 29.24ZM15.6 32.672C15.008 32.672 14.432 32.6 13.872 32.456C13.328 32.328 12.784 32.104 12.24 31.784C11.712 31.48 11.16 31.072 10.584 30.56C10.008 30.064 9.376 29.448 8.688 28.712L12 27.848C12.448 28.44 12.872 28.912 13.272 29.264C13.688 29.632 14.088 29.896 14.472 30.056C14.856 30.216 15.256 30.296 15.672 30.296C16.776 30.296 17.736 29.848 18.552 28.952L19.992 30.68C18.872 32.008 17.408 32.672 15.6 32.672ZM10.104 26.504C10.952 26.504 11.736 26.36 12.456 26.072C13.176 25.784 13.8 25.376 14.328 24.848C14.856 24.304 15.264 23.672 15.552 22.952C15.856 22.232 16.008 21.448 16.008 20.6C16.008 19.736 15.856 18.952 15.552 18.248C15.264 17.528 14.856 16.904 14.328 16.376C13.8 15.832 13.176 15.416 12.456 15.128C11.736 14.84 10.952 14.696 10.104 14.696C9.256 14.696 8.472 14.84 7.752 15.128C7.032 15.416 6.408 15.832 5.88 16.376C5.352 16.904 4.936 17.528 4.632 18.248C4.344 18.952 4.2 19.736 4.2 20.6C4.2 21.448 4.344 22.232 4.632 22.952C4.936 23.672 5.352 24.304 5.88 24.848C6.408 25.376 7.032 25.784 7.752 26.072C8.472 26.36 9.256 26.504 10.104 26.504Z" fill="#E8F8F6"/>
</svg>
