<svg width="32" height="32" viewBox="0 0 32 32" fill="none" xmlns="http://www.w3.org/2000/svg">
<path d="M6.09998 6.1C6.47503 5.72506 6.98365 5.51443 7.51398 5.51443C8.04431 5.51443 8.55292 5.72506 8.92798 6.1L16 13.172L23.072 6.1C23.4492 5.73568 23.9544 5.5341 24.4788 5.53865C25.0032 5.54321 25.5048 5.75355 25.8756 6.12436C26.2464 6.49518 26.4568 6.9968 26.4613 7.5212C26.4659 8.04559 26.2643 8.5508 25.9 8.928L18.828 16L25.9 23.072C26.2643 23.4492 26.4659 23.9544 26.4613 24.4788C26.4568 25.0032 26.2464 25.5048 25.8756 25.8756C25.5048 26.2465 25.0032 26.4568 24.4788 26.4613C23.9544 26.4659 23.4492 26.2643 23.072 25.9L16 18.828L8.92798 25.9C8.55077 26.2643 8.04557 26.4659 7.52117 26.4613C6.99678 26.4568 6.49516 26.2465 6.12434 25.8756C5.75352 25.5048 5.54319 25.0032 5.53863 24.4788C5.53407 23.9544 5.73566 23.4492 6.09998 23.072L13.172 16L6.09998 8.928C5.72503 8.55295 5.5144 8.04433 5.5144 7.514C5.5144 6.98367 5.72503 6.47506 6.09998 6.1Z" fill="#C6F3F5"/>
</svg>
