<svg width="13" height="13" viewBox="0 0 13 13" fill="none" xmlns="http://www.w3.org/2000/svg">
<g clip-path="url(#clip0_314_264)">
<path d="M12.3047 11.3585L10.018 9.07181C10.4058 8.45091 10.5515 7.70898 10.4273 6.98754C10.3031 6.2661 9.91763 5.61562 9.34451 5.16016C8.77139 4.70471 8.05067 4.47615 7.31981 4.51808C6.58895 4.56001 5.8991 4.86949 5.38182 5.38749C4.86454 5.9055 4.55604 6.59579 4.51514 7.32671C4.47424 8.05762 4.70382 8.77802 5.16008 9.3505C5.61634 9.92298 6.26736 10.3075 6.98898 10.4307C7.7106 10.5539 8.45231 10.4072 9.07267 10.0185L11.3593 12.3051C11.4215 12.3672 11.4953 12.4163 11.5764 12.4499C11.6576 12.4834 11.7446 12.5006 11.8324 12.5005C11.9202 12.5004 12.0071 12.483 12.0882 12.4493C12.1693 12.4156 12.243 12.3663 12.305 12.3041C12.367 12.242 12.4162 12.1682 12.4497 12.0871C12.4832 12.0059 12.5004 11.9189 12.5004 11.8311C12.5003 11.7433 12.4829 11.6564 12.4492 11.5753C12.4155 11.4942 12.3662 11.4205 12.304 11.3585H12.3047ZM5.83334 7.48514C5.83334 7.15815 5.9303 6.83849 6.11197 6.5666C6.29364 6.29471 6.55186 6.0828 6.85397 5.95766C7.15607 5.83253 7.4885 5.79978 7.80922 5.86358C8.12994 5.92737 8.42453 6.08484 8.65575 6.31606C8.88698 6.54728 9.04444 6.84188 9.10824 7.16259C9.17203 7.48331 9.13929 7.81574 9.01415 8.11785C8.88901 8.41995 8.6771 8.67817 8.40521 8.85984C8.13332 9.04151 7.81367 9.13848 7.48667 9.13848C7.04841 9.13848 6.62808 8.96447 6.31806 8.6547C6.00804 8.34493 5.83369 7.92474 5.83334 7.48648V7.48514Z" fill="#B1C8E4"/>
<path d="M7.16667 0.5H1.16667C0.989856 0.5 0.820286 0.570238 0.695262 0.695262C0.570238 0.820286 0.5 0.989856 0.5 1.16667L0.5 10.5C0.5 10.6768 0.570238 10.8464 0.695262 10.9714C0.820286 11.0964 0.989856 11.1667 1.16667 11.1667H5.23333C4.46522 10.6947 3.86259 9.99583 3.50867 9.16667H2.5C2.32319 9.16667 2.15362 9.09643 2.0286 8.9714C1.90357 8.84638 1.83333 8.67681 1.83333 8.5C1.83333 8.32319 1.90357 8.15362 2.0286 8.02859C2.15362 7.90357 2.32319 7.83333 2.5 7.83333H3.18933C3.18 7.71667 3.16667 7.60267 3.16667 7.48533C3.16782 7.15343 3.20742 6.82279 3.28467 6.5H2.5C2.32319 6.5 2.15362 6.42976 2.0286 6.30474C1.90357 6.17971 1.83333 6.01014 1.83333 5.83333C1.83333 5.65652 1.90357 5.48695 2.0286 5.36193C2.15362 5.2369 2.32319 5.16667 2.5 5.16667H3.848C4.19231 4.6291 4.65071 4.17389 5.19067 3.83333H2.5C2.32319 3.83333 2.15362 3.7631 2.0286 3.63807C1.90357 3.51305 1.83333 3.34348 1.83333 3.16667C1.83333 2.98986 1.90357 2.82029 2.0286 2.69526C2.15362 2.57024 2.32319 2.5 2.5 2.5H5.83333C6.01014 2.5 6.17971 2.57024 6.30474 2.69526C6.42976 2.82029 6.5 2.98986 6.5 3.16667C6.49593 3.20899 6.48744 3.25078 6.47467 3.29133C6.80541 3.20981 7.14469 3.16796 7.48533 3.16667C7.60267 3.16667 7.71733 3.17533 7.832 3.184V1.16667C7.832 0.990086 7.76195 0.820719 7.63721 0.695733C7.51247 0.570747 7.34325 0.500353 7.16667 0.5Z" fill="#B1C8E4"/>
</g>
<defs>
<clipPath id="clip0_314_264">
<rect width="12" height="12" fill="white" transform="translate(0.5 0.5)"/>
</clipPath>
</defs>
</svg>
