<svg width="17" height="17" viewBox="0 0 17 17" fill="none" xmlns="http://www.w3.org/2000/svg">
<g clip-path="url(#clip0_337_1287)">
<path d="M12.7858 3.53637H5.95535L6.52772 2.13726C6.64947 1.8387 6.56041 1.49731 6.30897 1.29559C6.05719 1.09401 5.70289 1.08282 5.43804 1.26686L0.812994 4.47935C0.610392 4.62006 0.492761 4.85392 0.500346 5.10036C0.507898 5.34664 0.639653 5.57266 0.850493 5.70058L5.68668 8.63721C5.96186 8.80421 6.31374 8.77103 6.55243 8.55551C6.79149 8.34003 6.86064 7.98952 6.72306 7.69888L6.0874 6.35413H12.7858C13.2801 6.35413 13.6822 6.76397 13.6822 7.25823V12.1574C13.6822 12.6517 13.2801 13.0464 12.7858 13.0464H5.37292C4.71166 13.0464 4.17558 13.5824 4.17558 14.2437V14.6668C4.17558 15.3281 4.71166 15.8641 5.37292 15.8641H12.7858C14.8338 15.8641 16.5 14.2055 16.5 12.1574V7.25827C16.5 5.21012 14.8338 3.53637 12.7858 3.53637Z" fill="#C6F3F5"/>
</g>
<defs>
<clipPath id="clip0_337_1287">
<rect width="16" height="16" fill="white" transform="translate(0.5 0.5)"/>
</clipPath>
</defs>
</svg>
